<svg width="335" height="85" viewBox="0 0 167.5 42.5" xmlns="http://www.w3.org/2000/svg">
  <path d="m60.316 4.727 15.172 12.328V4.727Z" fill="#3e863e"/>
  <path d="M167.283 38.186h-1.394v-7.601h1.394zm-2.57 0h-1.371v-5.355h1.371zm-1.605-6.851a.91.91 0 0 1 .917-.91.9.9 0 0 1 .903.91c0 .48-.406.898-.902.898-.5 0-.918-.418-.918-.898m-3.438 6.906c-1.488 0-2.71-1.149-2.71-2.723 0-1.594 1.265-2.738 2.76-2.738 1.223 0 2.263.758 2.563 2.012h-1.457c-.226-.438-.62-.715-1.136-.715-.75 0-1.348.597-1.348 1.433 0 .836.598 1.434 1.348 1.434.48 0 .855-.246 1.093-.64h1.465c-.34 1.273-1.445 1.937-2.578 1.937m-3.633-2.957v2.902h-1.422v-2.582c0-.18.125-1.531-.902-1.582-.5-.031-1.402.246-1.402 1.649v2.515h-1.414v-5.355h1.093l.184.656h.18c.226-.27.73-.707 1.629-.707 1.378 0 2.054 1.027 2.054 2.504m-6.402-2.453v5.355h-1.07l-.196-.601h-.136c-.215.27-.688.656-1.563.656-1.426 0-2.152-1.008-2.152-2.508v-2.902h1.453v2.582c0 .664.055 1.586.976 1.586.473 0 1.243-.246 1.243-1.649v-2.52zm-7.442 2.68c0-.837-.496-1.489-1.308-1.489-.813 0-1.36.652-1.36 1.488 0 .832.547 1.489 1.36 1.489.812 0 1.308-.657 1.308-1.489m-4.07.012c0-1.715 1.328-2.742 2.762-2.742 1.445 0 2.71 1.039 2.71 2.719 0 1.703-1.308 2.742-2.753 2.742-1.453 0-2.719-1.04-2.719-2.719m-.59.414c-.43 1.438-1.629 2.305-3.074 2.305-1.957 0-3.383-1.606-3.383-3.8 0-2.196 1.414-3.802 3.371-3.802 1.438 0 2.657.868 3.086 2.301h-1.617c-.277-.601-.781-.89-1.445-.89-1.223 0-1.918.996-1.918 2.39 0 1.39.707 2.387 1.937 2.387.664 0 1.149-.29 1.426-.89zm-9.875-.652v2.902h-1.433v-2.582c0-.523.086-1.582-.88-1.582-.468 0-1.378.246-1.378 1.649v2.515h-1.438v-7.601h1.364v2.804h.18c.257-.27.75-.61 1.542-.61 1.38 0 2.043 1.028 2.043 2.505m-8.597 2.957c-1.489 0-2.707-1.149-2.707-2.723 0-1.594 1.261-2.738 2.761-2.738 1.22 0 2.258.758 2.559 2.012h-1.457c-.223-.438-.621-.715-1.137-.715-.746 0-1.347.597-1.347 1.433 0 .836.601 1.434 1.347 1.434.485 0 .86-.246 1.094-.64h1.469c-.344 1.273-1.446 1.937-2.582 1.937m-3.032-5.461v1.367c-.105-.02-.289-.039-.468-.039-.75 0-1.532.383-1.532 1.367v2.711h-1.425v-5.351h1.093l.192.586h.172c.234-.235.761-.641 1.636-.641zm-6.168 3.156v-.105c-.972.105-1.937.226-1.937.781 0 .812 1.851.75 1.937-.676m1.95 1.223v1.027h-.32c-.622 0-1.06-.222-1.243-.683-.32.437-.855.738-1.691.738-1.211 0-1.98-.621-1.98-1.586 0-1.672 2.28-1.82 3.308-1.875-.024-.621-.363-.844-.91-.844-.762 0-.817.461-.817.461h-1.336c.094-.953.88-1.617 2.184-1.617 1.273 0 2.172.629 2.172 2.184v1.425c0 .621.226.77.633.77m-9.766-2.324h2.41c-.16-.633-.601-.891-1.137-.891-.59 0-1.058.332-1.273.89m3.824 1.083h-3.91c.16.812.824 1.113 1.402 1.113.73 0 1.04-.45 1.04-.45h1.351c-.41 1.071-1.383 1.66-2.434 1.66-1.445 0-2.707-1.105-2.707-2.773 0-1.66 1.254-2.687 2.664-2.687 1.372 0 2.766.953 2.594 3.137m-8-2.004c-.449 0-.64.226-.64.449 0 .367.48.473.8.535.954.207 1.918.496 1.918 1.629 0 1.102-.91 1.715-2.015 1.715-1.23 0-2.184-.75-2.246-1.887h1.316c.031.324.246.738.898.738.547 0 .676-.289.676-.511 0-.399-.375-.516-.738-.602-.633-.137-1.992-.394-1.992-1.617 0-1.047 1.008-1.582 2.043-1.582 1.199 0 1.992.727 2.058 1.625h-1.32c-.043-.18-.21-.492-.758-.492m-6.746.922h2.41c-.164-.633-.601-.891-1.136-.891-.59 0-1.059.332-1.274.89m3.824 1.083h-3.91c.16.812.824 1.113 1.403 1.113.726 0 1.039-.45 1.039-.45h1.347c-.406 1.071-1.379 1.66-2.43 1.66-1.445 0-2.706-1.105-2.706-2.773 0-1.66 1.25-2.687 2.664-2.687 1.37 0 2.761.953 2.593 3.137m-9.543-1.809h1.176c.613 0 1.02-.473 1.02-1.094 0-.62-.418-.984-1.02-.984h-1.176zm2.485 4.078-1.598-2.75h-.887v2.75h-1.359V30.69h2.645c1.23 0 2.324.824 2.324 2.305a2.38 2.38 0 0 1-1.352 2.183l1.813 3.008zm58.328-11.367s-.45.453-1.274.453c-1.027 0-1.918-.7-1.918-1.781v-2.485h-1.066V21.96h.535c.364 0 .61-.246.61-.633v-1.07h1.293v1.605h1.351v1.144h-1.351v2.399c0 .367.3.644.687.644.32 0 .621-.183.621-.183zm-4.774-2.504v2.902h-1.425v-2.582c0-.183.129-1.53-.899-1.582-.504-.035-1.402.246-1.402 1.649v2.515h-1.414v-5.355h1.094l.18.652h.183c.223-.265.726-.703 1.625-.703 1.383 0 2.058 1.028 2.058 2.504m-9.886-.45h2.41c-.16-.632-.598-.89-1.133-.89-.59 0-1.062.332-1.277.89m3.824 1.083h-3.91c.164.812.824 1.113 1.406 1.113.727 0 1.035-.453 1.035-.453h1.352c-.406 1.074-1.383 1.66-2.43 1.66-1.45 0-2.71-1.101-2.71-2.77 0-1.66 1.253-2.69 2.667-2.69 1.371 0 2.762.952 2.59 3.14m-6.18-.633v2.902h-1.422v-2.582c0-.738.075-1.668-.91-1.582-.258.02-.965.137-.965 1.649v2.515h-1.414v-2.582c0-.738.075-1.668-.91-1.582-.258.02-.965.137-.965 1.649v2.515h-1.41v-5.355h1.09l.16.578h.172a1.644 1.644 0 0 1 1.297-.629c.598-.012 1.113.266 1.465.738h.16c.27-.332.762-.738 1.629-.75 1.39-.011 2.023 1.028 2.023 2.516m-9.156 0v2.902h-1.422v-2.582c0-.183.13-1.53-.902-1.582-.5-.035-1.403.246-1.403 1.649v2.515h-1.414v-5.355h1.094l.184.652h.18c.226-.265.73-.703 1.628-.703 1.383 0 2.055 1.028 2.055 2.504m-7.453.223c0-.832-.492-1.485-1.305-1.485-.812 0-1.36.653-1.36 1.485 0 .836.548 1.488 1.36 1.488.813 0 1.305-.652 1.305-1.488m-4.067.011c0-1.71 1.329-2.738 2.762-2.738 1.446 0 2.707 1.035 2.707 2.719 0 1.703-1.304 2.738-2.75 2.738-1.457 0-2.719-1.035-2.719-2.719m-.324-2.742v1.371a2.787 2.787 0 0 0-.468-.043c-.75 0-1.532.387-1.532 1.371v2.711h-1.426v-5.355h1.094l.192.59h.172c.234-.235.761-.645 1.636-.645zm-4.754 5.41h-1.37v-5.355h1.37zm-1.605-6.855c0-.512.418-.91.922-.91.492 0 .898.398.898.91a.912.912 0 0 1-.898.902c-.504 0-.922-.418-.922-.902m-.633 1.5-1.734 5.355h-2.078l-1.735-5.355h1.426l1.242 3.941h.215l1.242-3.941zm-5.941 2.453v2.902h-1.426v-2.582c0-.183.129-1.53-.899-1.582-.503-.035-1.402.246-1.402 1.649v2.515h-1.414v-5.355h1.094l.18.652h.183c.223-.265.727-.703 1.625-.703 1.383 0 2.059 1.028 2.059 2.504m-6.18 1.563v1.34h-5.043V19.72h4.934v1.336h-3.532v1.696h3.211v1.336h-3.21v1.789zm29.492-9.633h-1.394V8.643h1.394zm-4.039-2.246v-.11c-.973.11-1.937.227-1.937.782 0 .816 1.851.75 1.937-.672m1.95 1.218v1.028h-.321c-.621 0-1.059-.223-1.242-.684-.32.438-.856.738-1.692.738-1.21 0-1.98-.62-1.98-1.585 0-1.668 2.281-1.82 3.309-1.872-.024-.62-.364-.847-.91-.847-.762 0-.817.46-.817.46h-1.336c.094-.952.875-1.616 2.184-1.616 1.273 0 2.172.632 2.172 2.187v1.422c0 .621.226.77.632.77m-5.609-4.38v1.372a2.84 2.84 0 0 0-.473-.043c-.75 0-1.531.386-1.531 1.37v2.708h-1.422v-5.352h1.09l.195.59h.168c.235-.238.762-.645 1.64-.645zm-4.691.055v5.356h-1.07l-.196-.602h-.137c-.215.266-.687.652-1.562.652-1.426 0-2.153-1.007-2.153-2.503v-2.903h1.453v2.578c0 .664.055 1.586.977 1.586.473 0 1.242-.246 1.242-1.648v-2.516zm-5.73 4.957s-.45.45-1.274.45c-1.028 0-1.918-.696-1.918-1.778v-2.484h-1.07V10.99h.535c.367 0 .613-.246.613-.633v-1.07h1.293v1.605h1.351v1.145H98.64v2.398c0 .363.3.645.687.645.32 0 .621-.184.621-.184zM94.204 14v-.11c-.972.11-1.937.227-1.937.782 0 .816 1.851.75 1.937-.672m1.95 1.218v1.028h-.32c-.622 0-1.06-.223-1.243-.684-.32.438-.856.738-1.692.738-1.21 0-1.98-.62-1.98-1.585 0-1.668 2.281-1.82 3.309-1.872-.024-.62-.364-.847-.91-.847-.762 0-.817.46-.817.46h-1.336c.094-.952.879-1.616 2.184-1.616 1.273 0 2.172.632 2.172 2.187v1.422c0 .621.226.77.632.77m-6.199-6.465v7.492h-1.402l-2.965-4.836h-.14v4.836h-1.403V8.753h1.414l2.965 4.71h.129v-4.71zM37.746 42.473H0V4.727h50.546z" fill="#1e1e5c"/>
  <path d="M29.187 23.602h-5.914v-6.32zm-5.156 11.742h-5.16v2.062l-3.629-4.758c2.762-.507 4.192-1.937 4.192-4.425 0-.618-.09-1.164-.262-1.649h4.86zm-15.476-8.77h4.027c1.656 0 2.324.64 2.324 1.649 0 1.007-.668 1.668-2.324 1.668H8.555zm10.316-7.476v6.828c-.937-1.582-3.09-2.317-6.289-2.324 2.852-.29 5.492-1.832 6.29-4.504M33.59 8.883h-4.403l-5.914 6.3v-6.3h-8.55v8.363c0 1.79-1.325 2.828-3.082 2.828-1.762 0-3.086-1.039-3.086-2.828V8.883H4.152v8.426c0 3.773 3.047 5.941 6.485 6.293H4.152v14.714h4.403v-5.453h1.922l4.066 5.453H33.59v-2.972h-5.16v-8.77h5.16v-3.883l-6.309-6.46 6.309-6.438zm0 0" fill="#fff"/>
  <path d="M60.316 4.727C54.25 2.21 46.805.652 38.062 0h-.32v23.234l4.985 19.239h32.761V17.055c-3.203-5.399-8.304-9.477-15.172-12.328" fill="#67c04d"/>
  <path d="M37.742 23.234v19.239h4.985c2.09-2.11 3.039-4.903 3.039-8.18 0-5.23-2.414-9.145-8.024-11.059" fill="#3e863e"/>
</svg>
